<?xml version="1.0" encoding="utf-8"?>
<!-- Generator: Adobe Illustrator 28.2.0, SVG Export Plug-In . SVG Version: 6.00 Build 0)  -->
<svg version="1.1" id="Layer_1" xmlns="http://www.w3.org/2000/svg" xmlns:xlink="http://www.w3.org/1999/xlink" x="0px" y="0px"
	 viewBox="0 0 160.6 56.6" style="enable-background:new 0 0 160.6 56.6;" xml:space="preserve">
<style type="text/css">
	.st0{fill:#2563EB;}
	.st1{fill:none;stroke:#2563EB;stroke-width:3;stroke-linecap:round;}
	.st2{fill:none;stroke:#FFFFFF;stroke-width:2;stroke-linecap:round;stroke-linejoin:round;}
	.st3{fill:#FFFFFF;}
	.st4{fill:#1F2937;}
</style>
<path class="st0" d="M40.3,10.5c-5.5,0-10,4.5-10,10v15c0,5.5,4.5,10,10,10h5v10l10-10h5c5.5,0,10-4.5,10-10v-15c0-5.5-4.5-10-10-10
	H40.3z"/>
<path class="st1" d="M18,20c0-6.6,5.4-12,12-12"/>
<path class="st1" d="M12,20c0-9.9,8.1-18,18-18"/>
<path class="st2" d="M50,20v10 M45,25h10 M50,35c2.8,0,5-2.2,5-5v-5c0-2.8-2.2-5-5-5s-5,2.2-5,5v5C45,32.8,47.2,35,50,35z"/>
<polygon class="st3" points="49,25.9 49,34.3 51,34.3 51,25.9 "/>
<g>
	<path class="st4" d="M76.6,38.3c-0.9-0.8-1.6-2-2.2-3.5c-0.5-1.5-0.8-3.1-0.8-5c0-1.9,0.3-3.5,0.8-5c0.5-1.5,1.3-2.6,2.2-3.5
		c0.9-0.8,2-1.2,3.1-1.2c1,0,1.8,0.3,2.6,0.9c0.8,0.6,1.4,1.4,2,2.5L82.7,26c-0.8-1.5-1.7-2.2-2.8-2.2c-0.7,0-1.3,0.3-1.9,0.8
		c-0.5,0.5-1,1.2-1.3,2.1s-0.5,1.9-0.5,3.1c0,1.2,0.2,2.2,0.5,3.1c0.3,0.9,0.7,1.6,1.3,2.1c0.5,0.5,1.2,0.8,1.9,0.8
		c1.1,0,2.1-0.7,2.8-2.2l1.7,2.6c-0.5,1.1-1.2,1.9-2,2.5c-0.8,0.6-1.7,0.9-2.6,0.9C78.6,39.5,77.5,39.1,76.6,38.3z"/>
	<path class="st4" d="M86.1,20.4h2.6v18.8h-2.6V20.4z"/>
	<path class="st4" d="M93.6,24H90v-3.5h9.7V24h-3.6v15.2h-2.6V24z"/>
	<path class="st4" d="M101.2,20.4h2.6v18.8h-2.6V20.4z"/>
	<path class="st4" d="M117.1,20.4l-4.8,18.8h-2.6l-4.8-18.8h2.8l3.4,13.4l3.4-13.4H117.1z"/>
	<path class="st4" d="M120.1,38.2c-0.9-0.8-1.7-2-2.2-3.5c-0.5-1.5-0.8-3.1-0.8-5c0-1.8,0.3-3.5,0.8-5c0.5-1.5,1.3-2.6,2.2-3.5
		c0.9-0.8,2-1.3,3.1-1.3c1.2,0,2.2,0.4,3.1,1.3c0.9,0.8,1.7,2,2.2,3.5s0.8,3.1,0.8,5c0,1.8-0.3,3.5-0.8,5s-1.3,2.6-2.2,3.5
		c-0.9,0.8-2,1.3-3.1,1.3C122.1,39.5,121.1,39.1,120.1,38.2z M125.1,35c0.5-0.5,1-1.2,1.3-2.1c0.3-0.9,0.5-1.9,0.5-3.1
		c0-1.2-0.2-2.2-0.5-3.1c-0.3-0.9-0.7-1.6-1.3-2.1c-0.5-0.5-1.1-0.8-1.8-0.8c-0.7,0-1.3,0.3-1.8,0.8s-0.9,1.2-1.3,2.1
		c-0.3,0.9-0.5,1.9-0.5,3.1c0,1.2,0.2,2.2,0.5,3.1c0.3,0.9,0.7,1.6,1.3,2.1c0.5,0.5,1.1,0.8,1.8,0.8C123.9,35.8,124.5,35.5,125.1,35
		z"/>
	<path class="st4" d="M131.3,20.4h2.6v18.8h-2.6V20.4z"/>
	<path class="st4" d="M138.8,38.3c-0.9-0.8-1.6-2-2.2-3.5c-0.5-1.5-0.8-3.1-0.8-5c0-1.9,0.3-3.5,0.8-5c0.5-1.5,1.2-2.6,2.2-3.5
		c0.9-0.8,2-1.2,3.1-1.2c1,0,1.8,0.3,2.6,0.9c0.8,0.6,1.4,1.4,2,2.5l-1.7,2.6c-0.8-1.5-1.7-2.2-2.8-2.2c-0.7,0-1.3,0.3-1.9,0.8
		c-0.5,0.5-1,1.2-1.3,2.1c-0.3,0.9-0.5,1.9-0.5,3.1c0,1.2,0.2,2.2,0.5,3.1c0.3,0.9,0.7,1.6,1.3,2.1c0.5,0.5,1.2,0.8,1.9,0.8
		c1.1,0,2.1-0.7,2.8-2.2l1.7,2.6c-0.5,1.1-1.2,1.9-2,2.5c-0.8,0.6-1.7,0.9-2.6,0.9C140.8,39.5,139.7,39.1,138.8,38.3z"/>
	<path class="st4" d="M156.9,35.7v3.5h-8.7V20.4h8.4v3.5h-5.9V28h5.2v3.4h-5.2v4.3H156.9z"/>
</g>
</svg>
